<?xml version="1.0" standalone="no"?>
<!DOCTYPE svg PUBLIC "-//W3C//DTD SVG 20010904//EN"
 "http://www.w3.org/TR/2001/REC-SVG-20010904/DTD/svg10.dtd">
<svg version="1.0" xmlns="http://www.w3.org/2000/svg"
 width="437.000000pt" height="437.000000pt" viewBox="0 0 437.000000 437.000000"
 preserveAspectRatio="xMidYMid meet">
<metadata>
Created by potrace 1.14, written by Peter Selinger 2001-2017
</metadata>
<g transform="translate(0.000000,437.000000) scale(0.100000,-0.100000)"
fill="#000000" stroke="none">
<path d="M1980 4363 c-176 -17 -422 -77 -600 -146 -151 -60 -389 -190 -479
-262 -9 -8 -50 -40 -91 -72 -150 -118 -318 -302 -442 -483 -182 -266 -319
-639 -355 -965 -15 -132 -8 -469 11 -570 2 -11 7 -42 11 -70 5 -27 9 -52 10
-55 1 -3 7 -32 14 -65 45 -205 165 -482 294 -679 57 -87 178 -243 230 -296
157 -162 352 -318 492 -396 131 -72 186 -99 280 -137 105 -43 280 -100 341
-110 16 -3 65 -12 109 -21 44 -8 105 -18 135 -22 82 -10 369 -12 447 -2 37 4
88 10 113 13 25 3 54 7 65 9 11 3 54 12 95 21 403 86 801 309 1092 612 117
121 136 144 223 268 79 113 91 134 162 275 101 200 148 338 192 555 29 143 36
227 36 425 0 277 -28 449 -112 700 -148 440 -451 839 -833 1097 -66 45 -246
153 -255 153 -2 0 -41 17 -87 38 -88 41 -170 73 -178 70 -3 -1 -14 3 -25 9
-36 20 -247 72 -357 89 -132 20 -412 28 -538 17z m350 -97 c298 -19 617 -114
871 -257 298 -168 547 -401 732 -684 62 -95 158 -279 186 -355 8 -19 19 -48
26 -65 43 -97 101 -353 120 -525 6 -56 7 -312 1 -365 -2 -16 -7 -59 -11 -95
-22 -198 -93 -436 -190 -637 -59 -121 -153 -282 -165 -283 -3 0 -20 57 -38
127 -17 69 -34 128 -37 131 -2 3 -29 -4 -58 -15 -68 -25 -148 -25 -175 1 -12
10 -24 32 -28 50 -8 33 -13 522 -6 544 3 9 44 12 157 12 112 0 156 3 161 12
11 18 12 271 1 286 -7 9 -52 12 -162 12 -113 0 -154 3 -157 13 -2 6 -4 88 -3
180 1 99 -2 170 -8 174 -13 8 -401 8 -415 -1 -7 -4 -11 -53 -11 -144 0 -75 0
-156 0 -179 l-1 -42 -82 -3 -83 -3 0 -150 0 -150 83 -3 c69 -2 82 -5 83 -20 0
-9 1 -143 1 -297 0 -154 4 -308 9 -342 22 -160 128 -283 283 -328 56 -16 202
-22 256 -10 14 3 38 8 54 10 15 3 44 12 63 20 44 18 41 11 -25 -64 -294 -334
-660 -558 -1087 -662 -166 -41 -328 -58 -520 -54 -99 2 -196 6 -215 9 -19 3
-48 7 -65 10 -536 79 -1042 382 -1361 813 -163 220 -277 455 -344 708 -16 60
-32 126 -35 145 -3 19 -10 60 -15 90 -5 30 -12 89 -15 131 l-5 76 208 -1 c114
-1 213 -5 219 -9 10 -6 13 -65 13 -235 0 -161 5 -247 15 -297 108 -511 658
-810 1141 -620 243 96 436 297 512 535 74 228 33 517 -102 734 -97 155 -227
258 -414 326 -120 44 -229 58 -455 58 -109 0 -201 3 -205 7 -4 3 -7 304 -7
667 0 539 2 664 13 675 8 7 50 35 95 61 278 162 595 259 912 278 61 4 111 7
112 8 3 2 14 2 173 -8z m-1791 -1234 c0 -236 -4 -434 -8 -441 -8 -12 -63 -14
-302 -12 l-96 1 19 83 c62 263 184 529 342 745 21 28 40 52 42 52 2 0 3 -193
3 -428z m964 -966 c55 -16 135 -67 170 -110 118 -141 105 -356 -28 -492 -186
-188 -527 -102 -600 150 -10 34 -15 101 -15 196 -2 266 -2 268 18 272 9 2 103
3 208 2 142 -1 206 -6 247 -18z"/>
<path d="M2520 2549 c-50 -15 -89 -46 -120 -96 -24 -37 -28 -54 -26 -101 5
-128 81 -206 207 -211 70 -3 129 20 170 66 49 56 66 130 47 201 -29 109 -162
176 -278 141z"/>
<path d="M2395 2018 c-3 -7 -4 -267 -3 -578 l3 -565 194 -3 c130 -2 197 1 201
8 5 9 7 1068 1 1133 -1 16 -17 17 -196 17 -147 0 -197 -3 -200 -12z"/>
</g>
</svg>
